<svg width="100" height="100" viewBox="0 0 100 100" fill="none" xmlns="http://www.w3.org/2000/svg">
<path d="M10.6514 69.6233L16.6514 75.6233V91.6666C16.654 93.876 17.5329 95.9941 19.0951 97.5563C20.6573 99.1185 22.7754 99.9973 24.9847 100H91.6664C93.8757 99.9973 95.9938 99.1185 97.556 97.5563C99.1183 95.9941 99.9971 93.876 99.9997 91.6666V50C99.9933 47.8964 99.1903 45.8734 97.7524 44.3381C96.3145 42.8028 94.3483 41.8691 92.2497 41.725C93.0901 40.1531 93.4054 38.3537 93.1496 36.5897C92.8938 34.8258 92.0803 33.19 90.8281 31.9216L69.6047 10.685L69.5947 10.6666H69.5797L61.3614 2.43831C59.7991 0.879108 57.682 0.00341797 55.4747 0.00341797C53.2675 0.00341797 51.1504 0.879108 49.5881 2.43831L2.43473 49.61C0.880255 51.1805 0.00830078 53.301 0.00830078 55.5108C0.00830078 57.7206 0.880255 59.8411 2.43473 61.4116L10.6514 69.6233ZM61.3497 7.13998L66.0581 11.8516L36.2597 41.6666H26.8331L61.3497 7.13998ZM16.6664 61.26L11.8331 66.0933L7.12306 61.3833L16.6664 51.8333V61.26ZM14.1897 68.45L16.6664 65.9733V70.9266L14.1897 68.45ZM96.6664 50V91.6666C96.6664 92.9927 96.1396 94.2645 95.2019 95.2022C94.2643 96.1399 92.9925 96.6666 91.6664 96.6666H24.9997C23.6736 96.6666 22.4019 96.1399 21.4642 95.2022C20.5265 94.2645 19.9997 92.9927 19.9997 91.6666V50C19.9997 48.6739 20.5265 47.4021 21.4642 46.4644C22.4019 45.5268 23.6736 45 24.9997 45H91.6664C92.9925 45 94.2643 45.5268 95.2019 46.4644C96.1396 47.4021 96.6664 48.6739 96.6664 50ZM88.4714 41.355L88.1664 41.6666H40.9714L68.4147 14.21L88.4664 34.2733C89.4015 35.2142 89.9267 36.4866 89.9277 37.8131C89.9286 39.1396 89.4052 40.4128 88.4714 41.355V41.355ZM4.79473 51.9616L51.9447 4.79498C52.8943 3.8875 54.1567 3.38025 55.4702 3.37839C56.7837 3.37653 58.0476 3.8802 58.9997 4.78498L21.1264 42.6666C19.6531 43.4473 18.4478 44.652 17.6664 46.125L4.76973 59.0233C3.84869 58.0773 3.33538 56.8077 3.34005 55.4874C3.34473 54.167 3.86701 52.9012 4.79473 51.9616V51.9616Z" fill="#3C386C"/>
<path d="M26.6668 63.3333H36.6668C37.5509 63.3333 38.3987 62.9821 39.0239 62.357C39.649 61.7319 40.0002 60.8841 40.0002 60V53.3333C40.0002 52.4493 39.649 51.6014 39.0239 50.9763C38.3987 50.3512 37.5509 50 36.6668 50H26.6668C25.7828 50 24.9349 50.3512 24.3098 50.9763C23.6847 51.6014 23.3335 52.4493 23.3335 53.3333V60C23.3335 60.8841 23.6847 61.7319 24.3098 62.357C24.9349 62.9821 25.7828 63.3333 26.6668 63.3333ZM26.6668 53.3333H36.6668V60H26.6668V53.3333Z" fill="#3C386C"/>
<path d="M25.0002 73.3332C25.4422 73.3332 25.8661 73.1576 26.1787 72.845C26.4912 72.5325 26.6668 72.1085 26.6668 71.6665V68.3332C26.6668 67.8911 26.4912 67.4672 26.1787 67.1547C25.8661 66.8421 25.4422 66.6665 25.0002 66.6665C24.5581 66.6665 24.1342 66.8421 23.8217 67.1547C23.5091 67.4672 23.3335 67.8911 23.3335 68.3332V71.6665C23.3335 72.1085 23.5091 72.5325 23.8217 72.845C24.1342 73.1576 24.5581 73.3332 25.0002 73.3332Z" fill="#3C386C"/>
<path d="M31.6667 66.6665C31.2246 66.6665 30.8007 66.8421 30.4882 67.1547C30.1756 67.4672 30 67.8911 30 68.3332V71.6665C30 72.1085 30.1756 72.5325 30.4882 72.845C30.8007 73.1576 31.2246 73.3332 31.6667 73.3332C32.1087 73.3332 32.5326 73.1576 32.8452 72.845C33.1577 72.5325 33.3333 72.1085 33.3333 71.6665V68.3332C33.3333 67.8911 33.1577 67.4672 32.8452 67.1547C32.5326 66.8421 32.1087 66.6665 31.6667 66.6665Z" fill="#3C386C"/>
<path d="M36.6665 68.3332V71.6665C36.6665 72.1085 36.8421 72.5325 37.1547 72.845C37.4672 73.1576 37.8911 73.3332 38.3332 73.3332C38.7752 73.3332 39.1991 73.1576 39.5117 72.845C39.8242 72.5325 39.9998 72.1085 39.9998 71.6665V68.3332C39.9998 67.8911 39.8242 67.4672 39.5117 67.1547C39.1991 66.8421 38.7752 66.6665 38.3332 66.6665C37.8911 66.6665 37.4672 66.8421 37.1547 67.1547C36.8421 67.4672 36.6665 67.8911 36.6665 68.3332Z" fill="#3C386C"/>
<path d="M45.0002 66.6665C44.5581 66.6665 44.1342 66.8421 43.8217 67.1547C43.5091 67.4672 43.3335 67.8911 43.3335 68.3332V71.6665C43.3335 72.1085 43.5091 72.5325 43.8217 72.845C44.1342 73.1576 44.5581 73.3332 45.0002 73.3332C45.4422 73.3332 45.8661 73.1576 46.1787 72.845C46.4912 72.5325 46.6668 72.1085 46.6668 71.6665V68.3332C46.6668 67.8911 46.4912 67.4672 46.1787 67.1547C45.8661 66.8421 45.4422 66.6665 45.0002 66.6665Z" fill="#3C386C"/>
<path d="M51.6667 73.3332C52.1087 73.3332 52.5326 73.1576 52.8452 72.845C53.1577 72.5325 53.3333 72.1085 53.3333 71.6665V68.3332C53.3333 67.8911 53.1577 67.4672 52.8452 67.1547C52.5326 66.8421 52.1087 66.6665 51.6667 66.6665C51.2246 66.6665 50.8007 66.8421 50.4882 67.1547C50.1756 67.4672 50 67.8911 50 68.3332V71.6665C50 72.1085 50.1756 72.5325 50.4882 72.845C50.8007 73.1576 51.2246 73.3332 51.6667 73.3332Z" fill="#3C386C"/>
<path d="M65.0002 66.6665C64.5581 66.6665 64.1342 66.8421 63.8217 67.1547C63.5091 67.4672 63.3335 67.8911 63.3335 68.3332V71.6665C63.3335 72.1085 63.5091 72.5325 63.8217 72.845C64.1342 73.1576 64.5581 73.3332 65.0002 73.3332C65.4422 73.3332 65.8661 73.1576 66.1787 72.845C66.4912 72.5325 66.6668 72.1085 66.6668 71.6665V68.3332C66.6668 67.8911 66.4912 67.4672 66.1787 67.1547C65.8661 66.8421 65.4422 66.6665 65.0002 66.6665Z" fill="#3C386C"/>
<path d="M71.6667 66.6665C71.2246 66.6665 70.8007 66.8421 70.4882 67.1547C70.1756 67.4672 70 67.8911 70 68.3332V71.6665C70 72.1085 70.1756 72.5325 70.4882 72.845C70.8007 73.1576 71.2246 73.3332 71.6667 73.3332C72.1087 73.3332 72.5326 73.1576 72.8452 72.845C73.1577 72.5325 73.3333 72.1085 73.3333 71.6665V68.3332C73.3333 67.8911 73.1577 67.4672 72.8452 67.1547C72.5326 66.8421 72.1087 66.6665 71.6667 66.6665Z" fill="#3C386C"/>
<path d="M78.3332 66.6665C77.8911 66.6665 77.4672 66.8421 77.1547 67.1547C76.8421 67.4672 76.6665 67.8911 76.6665 68.3332V71.6665C76.6665 72.1085 76.8421 72.5325 77.1547 72.845C77.4672 73.1576 77.8911 73.3332 78.3332 73.3332C78.7752 73.3332 79.1991 73.1576 79.5117 72.845C79.8242 72.5325 79.9998 72.1085 79.9998 71.6665V68.3332C79.9998 67.8911 79.8242 67.4672 79.5117 67.1547C79.1991 66.8421 78.7752 66.6665 78.3332 66.6665Z" fill="#3C386C"/>
<path d="M85.0002 66.6665C84.5581 66.6665 84.1342 66.8421 83.8217 67.1547C83.5091 67.4672 83.3335 67.8911 83.3335 68.3332V71.6665C83.3335 72.1085 83.5091 72.5325 83.8217 72.845C84.1342 73.1576 84.5581 73.3332 85.0002 73.3332C85.4422 73.3332 85.8661 73.1576 86.1787 72.845C86.4912 72.5325 86.6668 72.1085 86.6668 71.6665V68.3332C86.6668 67.8911 86.4912 67.4672 86.1787 67.1547C85.8661 66.8421 85.4422 66.6665 85.0002 66.6665Z" fill="#3C386C"/>
<path d="M31.6668 76.6665H25.0002C24.5581 76.6665 24.1342 76.8421 23.8217 77.1547C23.5091 77.4672 23.3335 77.8911 23.3335 78.3332C23.3335 78.7752 23.5091 79.1991 23.8217 79.5117C24.1342 79.8242 24.5581 79.9998 25.0002 79.9998H31.6668C32.1089 79.9998 32.5328 79.8242 32.8453 79.5117C33.1579 79.1991 33.3335 78.7752 33.3335 78.3332C33.3335 77.8911 33.1579 77.4672 32.8453 77.1547C32.5328 76.8421 32.1089 76.6665 31.6668 76.6665Z" fill="#3C386C"/>
<path d="M44.9998 76.6665H38.3332C37.8911 76.6665 37.4672 76.8421 37.1547 77.1547C36.8421 77.4672 36.6665 77.8911 36.6665 78.3332C36.6665 78.7752 36.8421 79.1991 37.1547 79.5117C37.4672 79.8242 37.8911 79.9998 38.3332 79.9998H44.9998C45.4419 79.9998 45.8658 79.8242 46.1784 79.5117C46.4909 79.1991 46.6665 78.7752 46.6665 78.3332C46.6665 77.8911 46.4909 77.4672 46.1784 77.1547C45.8658 76.8421 45.4419 76.6665 44.9998 76.6665Z" fill="#3C386C"/>
<path d="M31.6668 83.3335H25.0002C24.5581 83.3335 24.1342 83.5091 23.8217 83.8217C23.5091 84.1342 23.3335 84.5581 23.3335 85.0002C23.3335 85.4422 23.5091 85.8661 23.8217 86.1787C24.1342 86.4912 24.5581 86.6668 25.0002 86.6668H31.6668C32.1089 86.6668 32.5328 86.4912 32.8453 86.1787C33.1579 85.8661 33.3335 85.4422 33.3335 85.0002C33.3335 84.5581 33.1579 84.1342 32.8453 83.8217C32.5328 83.5091 32.1089 83.3335 31.6668 83.3335Z" fill="#3C386C"/>
<path d="M44.9998 83.3335H38.3332C37.8911 83.3335 37.4672 83.5091 37.1547 83.8217C36.8421 84.1342 36.6665 84.5581 36.6665 85.0002C36.6665 85.4422 36.8421 85.8661 37.1547 86.1787C37.4672 86.4912 37.8911 86.6668 38.3332 86.6668H44.9998C45.4419 86.6668 45.8658 86.4912 46.1784 86.1787C46.4909 85.8661 46.6665 85.4422 46.6665 85.0002C46.6665 84.5581 46.4909 84.1342 46.1784 83.8217C45.8658 83.5091 45.4419 83.3335 44.9998 83.3335Z" fill="#3C386C"/>
<path d="M58.3333 76.6665H51.6667C51.2246 76.6665 50.8007 76.8421 50.4882 77.1547C50.1756 77.4672 50 77.8911 50 78.3332C50 78.7752 50.1756 79.1991 50.4882 79.5117C50.8007 79.8242 51.2246 79.9998 51.6667 79.9998H58.3333C58.7754 79.9998 59.1993 79.8242 59.5118 79.5117C59.8244 79.1991 60 78.7752 60 78.3332C60 77.8911 59.8244 77.4672 59.5118 77.1547C59.1993 76.8421 58.7754 76.6665 58.3333 76.6665Z" fill="#3C386C"/>
</svg>
