<svg width="20" height="20" viewBox="0 0 20 20" fill="none" xmlns="http://www.w3.org/2000/svg">
<path d="M18.4375 10.625H11.5625C11.3139 10.6253 11.0756 10.7241 10.8999 10.8999C10.7241 11.0756 10.6253 11.3139 10.625 11.5625V18.4375C10.6253 18.6861 10.7241 18.9244 10.8999 19.1001C11.0756 19.2759 11.3139 19.3747 11.5625 19.375H18.4375C18.6861 19.3747 18.9244 19.2759 19.1001 19.1001C19.2759 18.9244 19.3747 18.6861 19.375 18.4375V11.5625C19.3747 11.3139 19.2759 11.0756 19.1001 10.8999C18.9244 10.7241 18.6861 10.6253 18.4375 10.625V10.625ZM18.75 18.4375C18.75 18.5204 18.717 18.5998 18.6584 18.6584C18.5998 18.717 18.5204 18.75 18.4375 18.75H11.5625C11.4796 18.75 11.4002 18.717 11.3416 18.6584C11.283 18.5998 11.25 18.5204 11.25 18.4375V11.5625C11.25 11.4796 11.283 11.4002 11.3416 11.3416C11.4002 11.283 11.4796 11.25 11.5625 11.25H18.4375C18.5204 11.25 18.5998 11.283 18.6584 11.3416C18.717 11.4002 18.75 11.4796 18.75 11.5625V18.4375Z" fill="#5D53D3"/>
<path d="M8.4375 10.625H1.5625C1.31394 10.6253 1.07565 10.7241 0.899889 10.8999C0.724133 11.0756 0.625273 11.3139 0.625 11.5625V18.4375C0.625273 18.6861 0.724133 18.9244 0.899889 19.1001C1.07565 19.2759 1.31394 19.3747 1.5625 19.375H8.4375C8.68606 19.3747 8.92435 19.2759 9.10011 19.1001C9.27587 18.9244 9.37473 18.6861 9.375 18.4375V11.5625C9.37473 11.3139 9.27587 11.0756 9.10011 10.8999C8.92435 10.7241 8.68606 10.6253 8.4375 10.625V10.625ZM8.75 18.4375C8.74995 18.5204 8.71701 18.5998 8.65842 18.6584C8.59982 18.717 8.52036 18.75 8.4375 18.75H1.5625C1.47964 18.75 1.40018 18.717 1.34158 18.6584C1.28299 18.5998 1.25005 18.5204 1.25 18.4375V11.5625C1.25005 11.4796 1.28299 11.4002 1.34158 11.3416C1.40018 11.283 1.47964 11.25 1.5625 11.25H8.4375C8.52036 11.25 8.59982 11.283 8.65842 11.3416C8.71701 11.4002 8.74995 11.4796 8.75 11.5625V18.4375Z" fill="#5D53D3"/>
<path d="M18.4375 0.625H11.5625C11.3139 0.625273 11.0756 0.724133 10.8999 0.899889C10.7241 1.07565 10.6253 1.31394 10.625 1.5625V8.4375C10.6253 8.68606 10.7241 8.92435 10.8999 9.10011C11.0756 9.27587 11.3139 9.37473 11.5625 9.375H18.4375C18.6861 9.37473 18.9244 9.27587 19.1001 9.10011C19.2759 8.92435 19.3747 8.68606 19.375 8.4375V1.5625C19.3747 1.31394 19.2759 1.07565 19.1001 0.899889C18.9244 0.724133 18.6861 0.625273 18.4375 0.625V0.625ZM18.75 8.4375C18.75 8.52036 18.717 8.59982 18.6584 8.65842C18.5998 8.71701 18.5204 8.74995 18.4375 8.75H11.5625C11.4796 8.74995 11.4002 8.71701 11.3416 8.65842C11.283 8.59982 11.25 8.52036 11.25 8.4375V1.5625C11.25 1.47964 11.283 1.40018 11.3416 1.34158C11.4002 1.28299 11.4796 1.25005 11.5625 1.25H18.4375C18.5204 1.25005 18.5998 1.28299 18.6584 1.34158C18.717 1.40018 18.75 1.47964 18.75 1.5625V8.4375Z" fill="#5D53D3"/>
<path d="M8.4375 0.625H1.5625C1.31394 0.625273 1.07565 0.724133 0.899889 0.899889C0.724133 1.07565 0.625273 1.31394 0.625 1.5625V8.4375C0.625273 8.68606 0.724133 8.92435 0.899889 9.10011C1.07565 9.27587 1.31394 9.37473 1.5625 9.375H8.4375C8.68606 9.37473 8.92435 9.27587 9.10011 9.10011C9.27587 8.92435 9.37473 8.68606 9.375 8.4375V1.5625C9.37473 1.31394 9.27587 1.07565 9.10011 0.899889C8.92435 0.724133 8.68606 0.625273 8.4375 0.625V0.625ZM8.75 8.4375C8.74995 8.52036 8.71701 8.59982 8.65842 8.65842C8.59982 8.71701 8.52036 8.74995 8.4375 8.75H1.5625C1.47964 8.74995 1.40018 8.71701 1.34158 8.65842C1.28299 8.59982 1.25005 8.52036 1.25 8.4375V1.5625C1.25005 1.47964 1.28299 1.40018 1.34158 1.34158C1.40018 1.28299 1.47964 1.25005 1.5625 1.25H8.4375C8.52036 1.25005 8.59982 1.28299 8.65842 1.34158C8.71701 1.40018 8.74995 1.47964 8.75 1.5625V8.4375Z" fill="#5D53D3"/>
</svg>
