<svg width="76" height="77" viewBox="0 0 76 77" fill="none" xmlns="http://www.w3.org/2000/svg">
<g clip-path="url(#clip0_122_2397)">
<path d="M37.9561 0.00390625C36.5938 0.00390625 35.2324 0.0781042 33.8779 0.226018C32.6364 0.3545 31.4102 0.565209 30.2004 0.820887C29.9662 0.870513 29.7319 0.922869 29.4978 0.977634C22.3698 2.62187 15.8612 6.31427 10.7524 11.612C10.2773 12.1054 9.81219 12.6134 9.35741 13.1358C-4.44299 29.1876 -2.78681 53.5349 13.0567 67.5168C28.2248 80.9028 51.0566 80.0121 65.1639 65.4843C65.6399 64.9909 66.1049 64.4829 66.5588 63.9605C72.6492 56.9335 76.0054 47.8998 76.0001 38.5482C76.0001 17.2606 58.9672 0.00374565 37.9561 0.00390625ZM12.4428 13.5393C12.6431 13.3285 12.8511 13.1268 13.0553 12.9225C13.2911 12.6874 13.5257 12.451 13.7667 12.2236C13.9785 12.0232 14.1966 11.8305 14.4134 11.6352C14.6582 11.4155 14.9017 11.1958 15.1528 10.9838C15.3734 10.7949 15.6004 10.6137 15.8261 10.4313C16.0798 10.2257 16.3334 10.0202 16.5946 9.82229C16.8254 9.64627 17.06 9.47539 17.2959 9.30837C17.5584 9.11821 17.8222 8.92292 18.0897 8.74562C18.3294 8.58116 18.5716 8.42184 18.8151 8.26381C19.0865 8.08779 19.3591 7.91434 19.6343 7.74989C19.8821 7.60004 20.1314 7.45261 20.3825 7.30791C20.6632 7.14602 20.9451 6.98799 21.2284 6.83381C21.482 6.69682 21.7356 6.56272 21.9892 6.43167C22.2784 6.28391 22.57 6.1413 22.863 6.00126C23.1166 5.8792 23.3804 5.75714 23.6416 5.64151C23.9396 5.51303 24.2414 5.38454 24.5432 5.25606C24.8057 5.14685 25.067 5.04021 25.332 4.93743C25.6389 4.81923 25.9496 4.70873 26.2603 4.59824C26.5253 4.50445 26.7904 4.41066 27.0592 4.322C27.375 4.21922 27.6933 4.12414 28.0128 4.03035C28.2804 3.95198 28.5455 3.87103 28.8143 3.7978C28.917 3.77082 29.0197 3.74898 29.1224 3.722C25.3688 7.41471 22.5832 11.9976 21.0178 17.0558C18.0079 16.2515 15.0941 15.1154 12.3286 13.6677C12.3705 13.6228 12.406 13.5778 12.4428 13.5393ZM10.6192 15.6078C13.6654 17.28 16.8956 18.5825 20.243 19.4879C18.6021 25.269 17.7407 31.2483 17.6827 37.2633H2.47782C2.75411 29.3314 5.61707 21.716 10.6192 15.6078ZM10.6192 61.4885C5.61739 55.3802 2.75443 47.7648 2.47782 39.833H17.6827C17.7407 45.848 18.6019 51.8273 20.243 57.6084C16.8958 58.5142 13.6656 59.8165 10.6192 61.4885ZM28.8067 73.3036C28.5505 73.2381 28.2855 73.1533 28.0217 73.0749C27.7009 72.9799 27.3788 72.8848 27.0617 72.7807C26.7942 72.6934 26.5304 72.5996 26.2666 72.5058C25.9547 72.3966 25.6427 72.2848 25.3346 72.1653C25.0708 72.0638 24.8108 71.9572 24.5496 71.8492C24.2465 71.7207 23.9434 71.5923 23.6429 71.4638C23.3842 71.3482 23.1267 71.2291 22.8706 71.1066C22.5751 70.9653 22.2809 70.8214 21.9829 70.6723C21.7293 70.5439 21.4756 70.4154 21.222 70.2753C20.9354 70.1199 20.6514 69.9606 20.3673 69.7961C20.1137 69.6535 19.8727 69.507 19.628 69.358C19.349 69.1884 19.0751 69.0137 18.8012 68.8351C18.5602 68.6796 18.3193 68.5216 18.0821 68.3597C17.812 68.1747 17.5444 67.9819 17.2794 67.7892C17.0473 67.6209 16.8153 67.4526 16.587 67.2753C16.3245 67.0749 16.0671 66.868 15.8109 66.6599C15.5865 66.4787 15.3633 66.2988 15.1439 66.1125C14.8903 65.8993 14.6455 65.677 14.3995 65.456C14.1839 65.262 13.9671 65.0706 13.7565 64.8727C13.5143 64.644 13.2797 64.4063 13.0439 64.1712C12.8397 63.9669 12.6317 63.7652 12.4314 63.5558C12.3946 63.5159 12.3591 63.4748 12.3223 63.4363C15.0876 61.988 18.0014 60.8514 21.0115 60.0469C22.5772 65.1049 25.3626 69.6877 29.1161 73.3807C29.0134 73.3537 28.9094 73.3319 28.8067 73.3036ZM36.6881 74.4214C31.2618 73.6403 26.505 67.9023 23.5123 59.4289C27.8391 58.4473 32.2546 57.9207 36.6881 57.8576V74.4214ZM36.6881 55.288C31.9849 55.3506 27.3016 55.9166 22.7159 56.9762C21.1236 51.4022 20.2836 45.6353 20.2189 39.833H36.6881V55.288ZM36.6881 37.2633H20.2189C20.2834 31.461 21.1234 25.6941 22.7159 20.1201C27.3016 21.1796 31.9851 21.7455 36.6881 21.8083V37.2633ZM36.6881 19.2387C32.2544 19.1761 27.8391 18.6494 23.5123 17.6674C26.505 9.19402 31.2618 3.45604 36.6881 2.67487V19.2387ZM65.2933 15.6078C70.2951 21.7161 73.158 29.3315 73.4346 37.2633H58.2298C58.1718 31.2483 57.3106 25.269 55.6694 19.4879C59.0167 18.582 62.2469 17.2797 65.2933 15.6078ZM47.0956 3.79138C47.3619 3.85819 47.627 3.94298 47.8907 4.02136C48.2116 4.11643 48.5337 4.21151 48.8507 4.31558C49.1183 4.40295 49.3821 4.49674 49.6458 4.59053C49.9578 4.69974 50.2698 4.81152 50.5779 4.93101C50.8417 5.03251 51.1016 5.13915 51.3629 5.24707C51.666 5.37555 51.969 5.50403 52.2696 5.63251C52.5283 5.74815 52.7857 5.86715 53.0419 5.98969C53.3373 6.13102 53.6316 6.27492 53.9296 6.42396C54.1832 6.55244 54.4368 6.68092 54.6904 6.82097C54.977 6.97643 55.2611 7.13575 55.5452 7.3002C55.7988 7.44282 56.0397 7.58928 56.2845 7.73832C56.5635 7.90792 56.8374 8.08265 57.1113 8.26124C57.3522 8.4167 57.5932 8.57474 57.8303 8.73662C58.1004 8.92164 58.3667 9.11307 58.6318 9.3058C58.8651 9.47411 59.0972 9.6437 59.3267 9.81972C59.588 10.0189 59.8441 10.2257 60.1015 10.4339C60.3247 10.6137 60.5492 10.7936 60.7686 10.9812C61.0222 11.1945 61.267 11.4167 61.513 11.6377C61.7285 11.8317 61.9454 12.0232 62.1559 12.221C62.3981 12.4497 62.6327 12.6874 62.8686 12.9225C63.0728 13.1268 63.2807 13.3285 63.4811 13.538C63.5179 13.5778 63.5534 13.6189 63.5902 13.6575C60.8249 15.1058 57.911 16.2423 54.9009 17.0468C53.3323 11.9882 50.5432 7.40572 46.7862 3.71429C46.8889 3.74127 46.9929 3.76311 47.0956 3.79138ZM39.2244 2.67487C44.6507 3.45604 49.4074 9.19402 52.4002 17.6674C48.0733 18.649 43.6579 19.1756 39.2244 19.2387V2.67487ZM39.2244 21.8083C43.9275 21.7457 48.6109 21.1797 53.1966 20.1201C54.7889 25.6941 55.6289 31.461 55.6935 37.2633H39.2244V21.8083ZM39.2244 39.833H55.6935C55.629 45.6353 54.789 51.4022 53.1966 56.9762C48.6109 55.9167 43.9275 55.3508 39.2244 55.288V39.833ZM39.2244 74.4214V57.8576C43.658 57.9202 48.0733 58.4469 52.4002 59.4289C49.4074 67.9023 44.6507 73.6403 39.2244 74.4214ZM63.4697 63.557C63.2693 63.7665 63.0626 63.9682 62.8585 64.1725C62.6226 64.4076 62.3867 64.6453 62.1445 64.874C61.934 65.0731 61.7171 65.2594 61.5016 65.4586C61.2555 65.6796 61.0108 65.9005 60.7597 66.1138C60.5378 66.3014 60.3121 66.4826 60.0863 66.665C59.8327 66.8706 59.5791 67.0762 59.3178 67.274C59.087 67.45 58.8524 67.6209 58.6166 67.7879C58.3541 67.9781 58.0903 68.1734 57.8227 68.3507C57.583 68.5151 57.3408 68.6745 57.0973 68.8312C56.826 69.0085 56.5525 69.1799 56.2769 69.3451C56.0232 69.4955 55.781 69.6419 55.5312 69.7871C55.2505 69.949 54.9682 70.107 54.6841 70.2612C54.4305 70.3982 54.1768 70.5323 53.9232 70.6634C53.6341 70.8111 53.3424 70.9537 53.0495 71.0938C52.7959 71.2158 52.5321 71.3379 52.2709 71.4535C51.9728 71.582 51.671 71.7105 51.3692 71.839C51.1067 71.9469 50.8455 72.0548 50.5817 72.1563C50.2723 72.2758 49.9616 72.3876 49.6496 72.4968C49.3859 72.5906 49.1221 72.6844 48.8545 72.7717C48.5375 72.8758 48.2205 72.9709 47.8971 73.0647C47.632 73.1443 47.3657 73.224 47.0982 73.2972C46.9954 73.3242 46.8927 73.346 46.79 73.373C50.5437 69.6803 53.3293 65.0974 54.8946 60.0392C57.9045 60.8435 60.8184 61.9796 63.5838 63.4273C63.542 63.4735 63.5065 63.5185 63.4697 63.557ZM65.2933 61.4885C62.2471 59.8163 59.0168 58.5138 55.6694 57.6084C57.3104 51.8273 58.1718 45.848 58.2298 39.833H73.4346C73.1585 47.7648 70.2954 55.3803 65.2933 61.4885Z" fill="#9D95FF"/>
</g>
<defs>
<clipPath id="clip0_122_2397">
<rect width="76" height="77" fill="white"/>
</clipPath>
</defs>
</svg>
