<svg width="76" height="83" viewBox="0 0 76 83" fill="none" xmlns="http://www.w3.org/2000/svg">
<path d="M51.2901 28.1512C51.2367 27.4866 50.6526 26.9899 49.9893 27.0443C46.147 27.3533 42.1129 27.5101 37.9988 27.5101C28.1901 27.5101 19.0399 26.6303 12.2337 25.0328C11.5857 24.8816 10.9343 25.2833 10.7817 25.9327C10.6293 26.5823 11.0323 27.2323 11.6816 27.3847C18.6634 29.0234 28.0097 29.9257 37.9988 29.9257C42.1771 29.9257 46.2766 29.7663 50.1831 29.452C50.8481 29.3985 51.3435 28.8161 51.2901 28.1512Z" fill="#9D95FF"/>
<path d="M51.2901 48.8515C51.2367 48.1868 50.6526 47.6905 49.9893 47.7446C46.147 48.0537 42.1129 48.2104 37.9988 48.2104C28.1901 48.2104 19.0399 47.3307 12.2337 45.7332C11.5857 45.5814 10.9343 45.9836 10.7817 46.6331C10.6293 47.2827 11.0323 47.9326 11.6816 48.085C18.6634 49.7237 28.0097 50.626 37.9988 50.626C42.1771 50.626 46.2766 50.4667 50.1831 50.1523C50.8481 50.0989 51.3435 49.5164 51.2901 48.8515Z" fill="#9D95FF"/>
<path d="M75.9908 9.50123C75.7362 3.7251 60.1112 1.46709 53.3606 0.761791C51.2779 0.544183 49.0949 0.370192 46.8718 0.244971C43.9838 0.082408 40.9983 0 37.9985 0C30.3228 0 22.9516 0.533721 16.6818 1.5437C16.0232 1.64977 15.5753 2.2696 15.6815 2.92822C15.7876 3.58668 16.4082 4.0351 17.066 3.92855C23.2111 2.93884 30.4493 2.41559 37.9986 2.41559C40.9534 2.41559 43.8931 2.49671 46.7361 2.65685C48.9206 2.77982 51.065 2.95059 53.1099 3.16418C59.3565 3.81684 64.6375 4.85338 68.3819 6.16177C73.3306 7.89105 73.5814 9.3657 73.5814 9.64367C73.5814 10.5841 71.5092 12.6509 63.7436 14.4315C63.529 14.4808 63.3124 14.5292 63.0935 14.577C56.3085 16.0586 47.4331 16.8719 37.9986 16.8719C28.5642 16.8719 19.6888 16.0585 12.9038 14.577C12.6849 14.5292 12.4682 14.4808 12.2537 14.4315C4.55852 12.6672 2.45534 10.6226 2.41768 9.67055C2.41784 9.66154 2.41897 9.65284 2.41897 9.64399C2.41897 9.63546 2.41784 9.62725 2.41768 9.61872C2.43747 9.05024 3.12571 8.32563 4.31564 7.625C5.81701 6.74088 8.01853 5.92308 10.8594 5.19428C11.5054 5.0285 11.8948 4.37036 11.729 3.72413C11.5632 3.07823 10.9057 2.68921 10.2588 2.8545C3.45164 4.60085 0 6.88542 0 9.64415V72.7645C0 75.7217 3.9411 78.1247 11.7137 79.907C18.7486 81.5197 28.0834 82.408 37.9985 82.408C47.9135 82.408 57.2486 81.5197 64.2831 79.9067C72.0557 78.1244 75.9968 75.7214 75.9968 72.7642V9.70612C75.9979 9.68536 76 9.66476 76 9.64383C76.0002 9.59555 75.9966 9.54806 75.9908 9.50123ZM63.7434 77.5521C56.8804 79.1257 47.7374 79.9923 37.9985 79.9923C28.2595 79.9923 19.1166 79.1257 12.2535 77.5521C4.48786 75.7713 2.41575 73.7046 2.41575 72.7642V55.3954C2.44214 55.4136 2.47127 55.4315 2.49815 55.4497C2.56366 55.4939 2.63078 55.5379 2.69886 55.5816C2.75391 55.617 2.80944 55.6525 2.86609 55.6877C2.93707 55.7318 3.01015 55.7754 3.08386 55.819C3.14181 55.8533 3.19927 55.8878 3.25882 55.9217C3.33656 55.9662 3.41687 56.0103 3.49735 56.0544C3.5569 56.0869 3.61533 56.1195 3.67633 56.1519C3.76405 56.1984 3.85499 56.2443 3.94577 56.2903C4.00339 56.3194 4.0594 56.3489 4.11831 56.3779C4.23082 56.4332 4.34718 56.488 4.4642 56.5427C4.50508 56.5617 4.54387 56.5812 4.58523 56.6002C4.7441 56.6731 4.9073 56.7453 5.07437 56.817C5.12652 56.8393 5.18141 56.8612 5.23452 56.8836C5.3525 56.9332 5.47064 56.9826 5.59264 57.0315C5.66201 57.0594 5.73396 57.0867 5.80462 57.1144C5.91406 57.1572 6.02351 57.2 6.13602 57.2424C6.21392 57.2716 6.29391 57.3006 6.37326 57.3296C6.48271 57.3697 6.59264 57.4097 6.70483 57.4495C6.78836 57.479 6.87383 57.5083 6.95897 57.5375C7.07148 57.5762 7.18479 57.6148 7.30019 57.6531C7.38791 57.6822 7.47692 57.7112 7.56625 57.7402C7.6831 57.778 7.80124 57.8157 7.92083 57.853C8.01225 57.8817 8.10431 57.9102 8.19735 57.9385C8.31967 57.9758 8.44393 58.0128 8.56899 58.0497C8.66282 58.0774 8.7565 58.1049 8.85194 58.1324C8.98167 58.1698 9.11381 58.2066 9.24644 58.2435C9.34092 58.2697 9.43475 58.2961 9.53068 58.322C9.67152 58.3602 9.81541 58.398 9.95946 58.4357C10.0507 58.4596 10.141 58.4838 10.2336 58.5074C10.3953 58.549 10.5606 58.5899 10.7261 58.6307C10.8048 58.6502 10.8817 58.6698 10.9612 58.6892C11.2081 58.749 11.4586 58.8083 11.7137 58.8667C18.7486 60.4796 28.0833 61.3681 37.9985 61.3681C47.9137 61.3681 57.2485 60.4796 64.2832 58.8667C64.5384 58.8083 64.7888 58.7489 65.0357 58.6892C65.1154 58.6698 65.1925 58.6502 65.2712 58.6307C65.4365 58.5899 65.6016 58.5491 65.7632 58.5076C65.8561 58.4838 65.9464 58.4596 66.038 58.4357C66.1817 58.398 66.3254 58.3602 66.4661 58.322C66.562 58.296 66.6559 58.2697 66.7503 58.2435C66.883 58.2066 67.0151 58.1698 67.1448 58.1324C67.2401 58.1051 67.334 58.0774 67.4278 58.0497C67.5529 58.0128 67.6771 57.9758 67.7994 57.9385C67.8925 57.9102 67.9845 57.8817 68.0761 57.853C68.1955 57.8157 68.3135 57.778 68.4304 57.7403C68.5199 57.7114 68.609 57.6824 68.6969 57.6531C68.812 57.6148 68.9253 57.5763 69.0376 57.5377C69.1228 57.5084 69.2083 57.4791 69.2918 57.4497C69.4041 57.4101 69.5139 57.37 69.6234 57.3298C69.7027 57.3006 69.7827 57.2718 69.8606 57.2425C69.9731 57.2002 70.0826 57.1574 70.192 57.1146C70.2627 57.0869 70.3346 57.0595 70.404 57.0317C70.5255 56.9829 70.6435 56.9335 70.7611 56.8841C70.8146 56.8617 70.8698 56.8395 70.9224 56.817C71.0895 56.7453 71.2525 56.6731 71.4114 56.6003C71.4528 56.5813 71.4917 56.562 71.5324 56.5428C71.6494 56.4881 71.7658 56.4334 71.8783 56.378C71.9372 56.3491 71.9932 56.3196 72.0509 56.2905C72.1416 56.2444 72.2326 56.1986 72.3203 56.1521C72.3813 56.1197 72.4399 56.087 72.4994 56.0544C72.5797 56.0104 72.6601 55.9663 72.7376 55.9219C72.7974 55.8878 72.855 55.8533 72.9131 55.8189C72.9866 55.7753 73.0595 55.7316 73.1305 55.6877C73.1873 55.6525 73.2427 55.617 73.2979 55.5816C73.366 55.5379 73.4331 55.4938 73.4986 55.4497C73.5255 55.4315 73.5545 55.4136 73.581 55.3954V72.7642H73.5812C73.5812 73.7046 71.5092 75.7714 63.7434 77.5521ZM73.5237 52.0172C73.1428 53.0497 70.7813 54.8982 63.7436 56.5121C56.8805 58.0858 47.7374 58.9525 37.9986 58.9525C28.2598 58.9525 19.1167 58.0858 12.2537 56.5121C5.21601 54.8982 2.8545 53.0497 2.47353 52.0172C2.43409 51.9105 2.41591 51.8123 2.41591 51.7241V34.3551C2.4415 34.3727 2.4695 34.3899 2.49542 34.4074C2.5627 34.4528 2.63158 34.4981 2.7016 34.5431C2.75536 34.5777 2.80928 34.6122 2.86464 34.6465C2.93691 34.6912 3.01127 34.7358 3.08628 34.7802C3.14309 34.8139 3.19959 34.8477 3.25801 34.881C3.33656 34.9259 3.41768 34.9703 3.49896 35.0149C3.55787 35.0471 3.61581 35.0794 3.67617 35.1115C3.76357 35.1578 3.85418 35.2037 3.9448 35.2494C4.00307 35.2788 4.05972 35.3086 4.11911 35.3379C4.22985 35.3925 4.34445 35.4462 4.45953 35.5002C4.50202 35.5201 4.54274 35.5402 4.58588 35.56C4.74442 35.6328 4.9073 35.7049 5.07389 35.7764C5.12893 35.8 5.18704 35.8232 5.24305 35.8467C5.35797 35.8948 5.47289 35.9431 5.59151 35.9907C5.66346 36.0196 5.73814 36.048 5.81138 36.0767C5.91809 36.1184 6.0248 36.1602 6.13457 36.2014C6.21456 36.2315 6.29697 36.2613 6.37857 36.2912C6.48577 36.3305 6.59312 36.3696 6.70306 36.4086C6.78852 36.4388 6.87592 36.4688 6.963 36.4987C7.07357 36.5367 7.18479 36.5745 7.29794 36.6122C7.38743 36.642 7.47821 36.6714 7.56931 36.7009C7.68471 36.7382 7.80124 36.7752 7.91922 36.8122C8.01177 36.8412 8.10496 36.87 8.19912 36.8987C8.32047 36.9357 8.44344 36.9724 8.56738 37.0088C8.66202 37.0366 8.75666 37.0646 8.85275 37.0921C8.98183 37.1292 9.11317 37.166 9.24515 37.2026C9.34027 37.229 9.43491 37.2555 9.53149 37.2817C9.67119 37.3196 9.8138 37.3571 9.95656 37.3946C10.0491 37.4189 10.1405 37.4433 10.2344 37.4673C10.3953 37.5087 10.56 37.5493 10.7248 37.59C10.804 37.6094 10.8814 37.6294 10.9614 37.6487C11.2083 37.7086 11.4587 37.7678 11.7139 37.8263C18.7488 39.4392 28.0836 40.3276 37.9986 40.3276C47.9137 40.3276 57.2486 39.4392 64.2834 37.8263C64.5385 37.7678 64.789 37.7084 65.0359 37.6487C65.116 37.6292 65.1936 37.6094 65.2728 37.59C65.4374 37.5494 65.6018 37.5087 65.7626 37.4675C65.8566 37.4433 65.9483 37.4189 66.041 37.3946C66.1835 37.3572 66.3259 37.3199 66.4655 37.2819C66.562 37.2557 66.6567 37.2291 66.7518 37.2027C66.8836 37.166 67.0151 37.1293 67.1442 37.0923C67.2404 37.0646 67.3351 37.0368 67.4296 37.0089C67.5535 36.9724 67.6766 36.9357 67.7978 36.8988C67.892 36.8702 67.9852 36.8412 68.0779 36.8122C68.1957 36.7754 68.3122 36.7384 68.4275 36.701C68.5187 36.6716 68.6097 36.642 68.6993 36.6122C68.8123 36.5747 68.9234 36.5369 69.0338 36.4989C69.121 36.4689 69.2083 36.439 69.2939 36.4087C69.4038 36.3699 69.5112 36.3307 69.6184 36.2914C69.7 36.2615 69.7824 36.2318 69.8624 36.2016C69.9721 36.1604 70.0787 36.1185 70.1856 36.0769C70.2588 36.0482 70.3335 36.0197 70.4054 35.9909C70.5237 35.9434 70.6383 35.8955 70.7529 35.8473C70.8094 35.8237 70.8677 35.8003 70.9232 35.7765C71.09 35.705 71.2527 35.6329 71.4112 35.5602C71.4544 35.5404 71.4949 35.5203 71.5376 35.5003C71.6527 35.4466 71.7673 35.3926 71.878 35.3381C71.9374 35.3088 71.994 35.2792 72.0523 35.2496C72.1428 35.2037 72.2335 35.1578 72.3209 35.1116C72.3813 35.0796 72.4394 35.0472 72.4983 35.0149C72.5794 34.9705 72.6605 34.926 72.7389 34.8811C72.7975 34.8477 72.8542 34.8139 72.9111 34.7801C72.986 34.7356 73.0604 34.6912 73.1325 34.6465C73.1878 34.6122 73.2417 34.5776 73.2955 34.5431C73.3655 34.4981 73.4344 34.4528 73.5017 34.4074C73.5276 34.3899 73.5556 34.3727 73.5812 34.3551V51.7241H73.5814C73.5812 51.8123 73.5632 51.9103 73.5237 52.0172ZM63.7434 35.4718C56.8804 37.0455 47.7373 37.9122 37.9985 37.9122C28.2597 37.9122 19.1166 37.0455 12.2535 35.4718C4.48786 33.6912 2.41575 31.6246 2.41575 30.684V13.315C2.44134 13.3326 2.46934 13.3498 2.49526 13.3673C2.56254 13.4127 2.63142 13.4579 2.70144 13.503C2.7552 13.5376 2.80912 13.5721 2.86448 13.6063C2.93675 13.6511 3.01111 13.6957 3.08612 13.7401C3.14293 13.7737 3.19943 13.8075 3.25785 13.8408C3.3364 13.8858 3.41752 13.9302 3.4988 13.9748C3.55771 14.0069 3.61565 14.0393 3.67601 14.0713C3.76341 14.1177 3.85402 14.1636 3.94464 14.2093C4.00291 14.2387 4.05956 14.2685 4.11895 14.2978C4.22969 14.3524 4.34429 14.4061 4.45937 14.46C4.50186 14.48 4.54258 14.5001 4.58572 14.5199C4.74426 14.5927 4.90714 14.6648 5.07373 14.7362C5.12877 14.7599 5.18688 14.7831 5.24289 14.8066C5.35781 14.8547 5.47273 14.903 5.59135 14.9506C5.6633 14.9794 5.73798 15.0079 5.81122 15.0366C5.91793 15.0783 6.02464 15.1201 6.13441 15.1613C6.2144 15.1914 6.29681 15.2212 6.37841 15.2511C6.48561 15.2904 6.59296 15.3295 6.70289 15.3685C6.78836 15.3987 6.87576 15.4286 6.96283 15.4586C7.07341 15.4966 7.18463 15.5344 7.29778 15.5721C7.38727 15.6018 7.47805 15.6313 7.56915 15.6607C7.68455 15.6981 7.80108 15.7351 7.91906 15.7721C8.01161 15.8011 8.1048 15.8299 8.19896 15.8586C8.32031 15.8956 8.44328 15.9323 8.56722 15.9686C8.66186 15.9965 8.7565 16.0245 8.85259 16.052C8.98167 16.089 9.11301 16.1259 9.24499 16.1624C9.34011 16.1888 9.43475 16.2154 9.53133 16.2416C9.67103 16.2794 9.81364 16.317 9.9564 16.3545C10.049 16.3788 10.1404 16.4032 10.2342 16.4272C10.3952 16.4684 10.5598 16.5091 10.7246 16.5498C10.8038 16.5693 10.8812 16.5893 10.9612 16.6086C11.2081 16.6685 11.4586 16.7277 11.7137 16.7861C18.7485 18.399 28.0833 19.2875 37.9985 19.2875C47.9137 19.2875 57.2486 18.399 64.2832 16.7861C64.5384 16.7277 64.7888 16.6683 65.0357 16.6086C65.1159 16.5891 65.1934 16.5693 65.2726 16.5498C65.4373 16.5093 65.6016 16.4686 65.7624 16.4274C65.8564 16.4032 65.9482 16.3788 66.0409 16.3545C66.1833 16.3171 66.3257 16.2798 66.4653 16.2418C66.5619 16.2156 66.6565 16.189 66.7516 16.1626C66.8834 16.1259 67.0149 16.0892 67.144 16.0522C67.2403 16.0245 67.3349 15.9967 67.4294 15.9688C67.5533 15.9323 67.6765 15.8956 67.7977 15.8587C67.8918 15.8301 67.985 15.8011 68.0777 15.7721C68.1955 15.7353 68.3121 15.6982 68.4273 15.6609C68.5186 15.6315 68.6095 15.6018 68.6992 15.5721C68.8122 15.5346 68.9232 15.4967 69.0336 15.4587C69.1209 15.4288 69.2081 15.3989 69.2937 15.3686C69.4037 15.3298 69.511 15.2906 69.6182 15.2513C69.6998 15.2213 69.7822 15.1917 69.8622 15.1615C69.972 15.1203 70.0785 15.0784 70.1854 15.0367C70.2586 15.0081 70.3333 14.9796 70.4053 14.9508C70.5236 14.9033 70.6382 14.8553 70.7528 14.8072C70.8093 14.7835 70.8675 14.7602 70.923 14.7364C71.0898 14.6649 71.2525 14.5928 71.4111 14.5201C71.4542 14.5003 71.4948 14.4802 71.5374 14.4602C71.6525 14.4064 71.7671 14.3525 71.8778 14.298C71.9372 14.2687 71.9939 14.239 72.0521 14.2094C72.1426 14.1636 72.2334 14.1177 72.3208 14.0715C72.3811 14.0395 72.4392 14.0071 72.4981 13.9748C72.5793 13.9303 72.6604 13.8859 72.7388 13.841C72.7974 13.8075 72.854 13.7737 72.911 13.7399C72.9858 13.6955 73.0602 13.6511 73.1323 13.6063C73.1877 13.5721 73.2416 13.5374 73.2953 13.503C73.3654 13.4579 73.4342 13.4127 73.5015 13.3673C73.5274 13.3498 73.5554 13.3326 73.581 13.315V30.684H73.5812C73.5812 31.6244 71.5092 33.6912 63.7434 35.4718Z" fill="#9D95FF"/>
<path d="M63.6729 23.2596C61.8367 21.4239 58.8496 21.4239 57.0136 23.2596C55.1778 25.0956 55.1778 28.0827 57.0136 29.9187C57.9315 30.8364 59.1374 31.2956 60.3432 31.2956C61.5491 31.2956 62.7548 30.8366 63.6729 29.9187C65.5087 28.0827 65.5087 25.0956 63.6729 23.2596ZM61.9645 28.2105C61.5316 28.6436 60.9557 28.8821 60.3432 28.8821C59.7308 28.8821 59.1549 28.6436 58.7219 28.2105C58.2888 27.7775 58.0503 27.2016 58.0503 26.5892C58.0503 25.9768 58.2888 25.4009 58.7219 24.9679C59.1549 24.5348 59.7308 24.2963 60.3432 24.2963C60.9557 24.2963 61.5316 24.5348 61.9645 24.9679C62.3976 25.4009 62.6362 25.9768 62.6362 26.5892C62.6362 27.2016 62.3976 27.7775 61.9645 28.2105Z" fill="#9D95FF"/>
<path d="M63.6729 44.0232C61.8367 42.1876 58.8496 42.1876 57.0136 44.0232C55.1778 45.8592 55.1778 48.8464 57.0136 50.6824C57.9315 51.6001 59.1374 52.0593 60.3432 52.0593C61.5491 52.0593 62.7548 51.6003 63.6729 50.6824C65.5087 48.8464 65.5087 45.8592 63.6729 44.0232ZM61.9645 48.9742C61.5316 49.4073 60.9557 49.6458 60.3432 49.6458C59.7308 49.6458 59.1549 49.4073 58.7219 48.9742C58.2888 48.5412 58.0503 47.9653 58.0503 47.3529C58.0503 46.7405 58.2888 46.1646 58.7219 45.7316C59.1549 45.2985 59.7308 45.0599 60.3432 45.0599C60.9557 45.0599 61.5316 45.2985 61.9645 45.7316C62.3976 46.1646 62.6362 46.7405 62.6362 47.3529C62.6362 47.9653 62.3976 48.5412 61.9645 48.9742Z" fill="#9D95FF"/>
<path d="M63.6729 64.8172C61.8367 62.9815 58.8496 62.9815 57.0136 64.8172C55.1778 66.6532 55.1778 69.6403 57.0136 71.4763C57.9315 72.3941 59.1374 72.8533 60.3432 72.8533C61.5491 72.8533 62.7548 72.3942 63.6729 71.4763C65.5087 69.6403 65.5087 66.6532 63.6729 64.8172ZM61.9645 69.7681C61.5316 70.2012 60.9557 70.4398 60.3432 70.4398C59.7308 70.4398 59.1549 70.2012 58.7219 69.7681C58.2888 69.3351 58.0503 68.7592 58.0503 68.1468C58.0503 67.5344 58.2888 66.9585 58.7219 66.5255C59.1549 66.0924 59.7308 65.8539 60.3432 65.8539C60.9557 65.8539 61.5316 66.0924 61.9645 66.5255C62.3976 66.9585 62.6362 67.5344 62.6362 68.1468C62.6362 68.7591 62.3976 69.3351 61.9645 69.7681Z" fill="#9D95FF"/>
<path d="M51.2899 69.9422C51.2364 69.2776 50.6523 68.7795 49.989 68.8353C48.2998 68.9712 46.5545 69.0788 44.8014 69.155C44.135 69.1841 43.6182 69.7478 43.6472 70.4143C43.6755 71.0629 44.21 71.5696 44.853 71.5696C44.8707 71.5696 44.8886 71.5693 44.9065 71.5685C46.6892 71.4909 48.4642 71.3814 50.1828 71.243C50.8477 71.1896 51.3435 70.6071 51.2899 69.9422Z" fill="#9D95FF"/>
<path d="M38.3746 69.3019C38.3736 69.3019 38.3725 69.3019 38.3715 69.3019L37.9988 69.3022C28.1901 69.3022 19.0399 68.4225 12.2337 66.825C11.5857 66.6732 10.9343 67.0754 10.7817 67.7249C10.6293 68.3745 11.0323 69.0244 11.6816 69.1768C18.6634 70.8155 28.0097 71.7178 37.9988 71.7178L38.3775 71.7175C39.0446 71.7157 39.584 71.1736 39.5824 70.5066C39.5804 69.8406 39.0401 69.3019 38.3746 69.3019Z" fill="#9D95FF"/>
</svg>
