<svg width="83" height="62" viewBox="0 0 83 62" fill="none" xmlns="http://www.w3.org/2000/svg">
<path d="M74.0556 62H8.61111C3.86122 62 0 58.1388 0 53.3889V8.61111C0 3.86122 3.86122 0 8.61111 0H27.5556C28.0137 0 28.4511 0.182555 28.7749 0.502889L35.1574 6.88889H74.0556C78.8054 6.88889 82.6667 10.7501 82.6667 15.5V53.3889C82.6667 58.1388 78.8054 62 74.0556 62ZM8.61111 3.44444C5.76256 3.44444 3.44444 5.76256 3.44444 8.61111V53.3889C3.44444 56.2374 5.76256 58.5556 8.61111 58.5556H74.0556C76.9041 58.5556 79.2222 56.2374 79.2222 53.3889V15.5C79.2222 12.6514 76.9041 10.3333 74.0556 10.3333H34.4444C33.9863 10.3333 33.5489 10.1508 33.2251 9.83044L26.8426 3.44444H8.61111Z" fill="#9D95FF"/>
<path d="M17.2222 44.778C16.2716 44.778 15.5 44.0064 15.5 43.0558V29.278C15.5 26.4294 17.8181 24.1113 20.6667 24.1113H27.5556C28.5062 24.1113 29.2778 24.8829 29.2778 25.8336C29.2778 26.7842 28.5062 27.5558 27.5556 27.5558H20.6667C19.7194 27.5558 18.9444 28.3308 18.9444 29.278V43.0558C18.9444 44.0064 18.1729 44.778 17.2222 44.778Z" fill="#9D95FF"/>
<path d="M55.1114 44.778C54.1607 44.778 53.3892 44.0064 53.3892 43.0558V25.8336C53.3892 24.8829 54.1607 24.1113 55.1114 24.1113H60.278C64.0773 24.1113 67.1669 27.201 67.1669 31.0002C67.1669 34.7994 64.0773 37.8891 60.278 37.8891H56.8336V43.0558C56.8336 44.0064 56.062 44.778 55.1114 44.778ZM56.8336 34.4447H60.278C62.1794 34.4447 63.7225 32.9016 63.7225 31.0002C63.7225 29.0989 62.1794 27.5558 60.278 27.5558H56.8336V34.4447Z" fill="#9D95FF"/>
<path d="M27.5556 37.8888H17.2222C16.2716 37.8888 15.5 37.1172 15.5 36.1666C15.5 35.2159 16.2716 34.4443 17.2222 34.4443H27.5556C28.5062 34.4443 29.2778 35.2159 29.2778 36.1666C29.2778 37.1172 28.5062 37.8888 27.5556 37.8888Z" fill="#9D95FF"/>
<path d="M41.3331 44.778C40.3824 44.778 39.6108 44.0064 39.6108 43.0558V25.8336C39.6108 24.8829 40.3824 24.1113 41.3331 24.1113C42.2837 24.1113 43.0553 24.8829 43.0553 25.8336V43.0558C43.0553 44.0064 42.2837 44.778 41.3331 44.778Z" fill="#9D95FF"/>
<path d="M48.2222 27.5558H34.4444C33.4937 27.5558 32.7222 26.7842 32.7222 25.8336C32.7222 24.8829 33.4937 24.1113 34.4444 24.1113H48.2222C49.1728 24.1113 49.9444 24.8829 49.9444 25.8336C49.9444 26.7842 49.1728 27.5558 48.2222 27.5558Z" fill="#9D95FF"/>
</svg>
