<svg width="78" height="78" viewBox="0 0 78 78" fill="none" xmlns="http://www.w3.org/2000/svg">
<path d="M72.3919 12.5494C72.6461 11.299 71.4182 10.2562 70.224 10.7114L68.4093 11.4044C62.9239 4.52099 52.0066 6.34316 49.025 14.5859C48.8103 15.1793 49.1173 15.8342 49.7108 16.049C50.3038 16.2637 50.9591 15.9569 51.1739 15.3632C53.43 9.1266 61.5283 7.37756 66.1361 12.2726L64.9058 12.7424C63.7134 13.1976 63.4908 14.7939 64.5144 15.5576L68.7754 18.7367C68.7754 18.7368 68.7756 18.7368 68.7756 18.7368C69.7301 19.4486 71.0982 18.9237 71.3349 17.7595L72.3919 12.5494ZM69.3031 16.2794L66.8472 14.447L69.9126 13.2764L69.3031 16.2794Z" fill="#9D95FF"/>
<path d="M69.5054 20.7735C68.912 20.5595 68.2571 20.8661 68.0426 21.4599C65.7486 27.8105 57.4531 29.4527 52.9315 24.3997L54.1436 23.9367C55.3356 23.4815 55.5589 21.8853 54.535 21.1217C54.5349 21.1217 50.2737 17.9422 50.2735 17.9422C49.32 17.2308 47.9509 17.7553 47.7145 18.9198L46.6572 24.1294C46.403 25.3805 47.6324 26.4233 48.8251 25.9676L50.6792 25.2595C56.0859 32.3166 67.1806 30.5718 70.1917 22.236C70.4062 21.6429 70.0989 20.988 69.5054 20.7735ZM49.1366 23.4029L49.7461 20.3998L52.202 22.2322L49.1366 23.4029Z" fill="#9D95FF"/>
<path d="M50.4487 2.46803C32.0318 -2.81399 0 0.782206 0 10.2966V67.0613C0 73.7357 15.65 77.3369 30.3752 77.3369C45.1005 77.3369 60.7504 73.7356 60.7504 67.0613C60.7504 64.6185 60.7504 52.6703 60.7504 50.4782C60.7504 49.8471 60.239 49.3357 59.6079 49.3357C58.9767 49.3357 58.4653 49.8471 58.4653 50.4782V52.8702C58.4653 56.5224 47.1455 60.8607 30.3752 60.8607C13.6054 60.8607 2.28513 56.5224 2.28513 52.8702V42.7909C12.1721 50.9712 48.5821 50.968 58.4651 42.7909V45.1463C58.4651 45.7774 58.9766 46.2888 59.6077 46.2888C60.2389 46.2888 60.7503 45.7774 60.7503 45.1463C60.7503 43.4848 60.7503 38.5215 60.7503 36.769C63.5561 36.5945 66.2931 35.7806 68.7281 34.3874C69.2758 34.074 69.4658 33.376 69.1524 32.8283C68.8391 32.2806 68.141 32.0905 67.5933 32.404C56.9111 38.5156 43.6549 30.7539 43.5035 18.6181C43.391 9.63527 50.666 2.30609 59.6077 2.30609C68.4891 2.30609 75.7147 9.53168 75.7147 18.4131C75.7147 22.4533 74.2119 26.3175 71.4831 29.2938C71.0567 29.7589 71.0879 30.4818 71.5532 30.9082C72.0181 31.3346 72.7408 31.3032 73.1675 30.8381C76.2837 27.4391 78 23.0266 78 18.4131C77.9998 4.31106 62.6684 -4.57857 50.4487 2.46803V2.46803ZM58.4651 56.9839V67.0613C58.4651 70.7136 47.1454 75.0518 30.3751 75.0518C13.6054 75.052 2.28513 70.7136 2.28513 67.0613V56.9839C12.1726 65.1611 48.58 65.1593 58.4651 56.9839ZM48.2578 32.8876C51.1865 35.193 54.725 36.5424 58.4651 36.7703V38.6789C58.4651 42.3319 47.1425 46.6695 30.3751 46.6695C13.6078 46.6697 2.28513 42.3319 2.28513 38.679V28.6017C9.50479 34.5726 32.5013 36.6166 48.2578 32.8876V32.8876ZM46.1995 31.0002C26.4739 35.0472 2.28513 30.1937 2.28513 24.4879V14.4103C9.12043 20.0655 28.1905 21.5474 41.278 19.9246C41.6132 24.0756 43.3333 27.9515 46.1995 31.0002V31.0002ZM41.2322 17.6244C21.674 20.1157 2.28513 15.2957 2.28513 10.2966C2.28513 4.29111 28.5831 -0.50996 47.9599 4.17426C43.992 7.4059 41.4618 12.205 41.2322 17.6244V17.6244Z" fill="#9D95FF"/>
</svg>
