<svg width="77" height="53" viewBox="0 0 77 53" fill="none" xmlns="http://www.w3.org/2000/svg">
<path d="M68.9586 53H7.53062C5.53395 52.9977 3.61973 52.2035 2.20794 50.7916C0.796147 49.3796 0.00209503 47.4653 0 45.4687V7.53134C0.00209503 5.53467 0.796147 3.62037 2.20794 2.20845C3.61973 0.796522 5.53395 0.00228582 7.53062 0H68.9586C70.9552 0.00228582 72.8695 0.796522 74.2813 2.20845C75.693 3.62037 76.4871 5.53467 76.4892 7.53134V45.4687C76.4871 47.4653 75.693 49.3796 74.2813 50.7916C72.8695 52.2035 70.9552 52.9977 68.9586 53V53ZM7.53062 2.8784C6.29706 2.87973 5.11441 3.37041 4.24222 4.24273C3.37003 5.11506 2.87954 6.29778 2.8784 7.53134V45.4687C2.87954 46.7022 3.37003 47.8849 4.24222 48.7573C5.11441 49.6296 6.29706 50.1203 7.53062 50.1216H68.9586C70.1921 50.1203 71.3748 49.6296 72.247 48.7573C73.1192 47.8849 73.6097 46.7022 73.6108 45.4687V7.53134C73.6097 6.29778 73.1192 5.11506 72.247 4.24273C71.3748 3.37041 70.1921 2.87973 68.9586 2.8784H7.53062Z" fill="#9D95FF"/>
<path d="M38.2449 34.9701C37.8941 34.9703 37.5553 34.8424 37.2922 34.6103L2.60742 3.99278L4.5122 1.83398L38.2449 31.6139L71.979 1.83758L73.8838 3.99638L39.1991 34.6139C38.9353 34.8454 38.5958 34.9721 38.2449 34.9701V34.9701Z" fill="#9D95FF"/>
<path d="M1.82471 48.4805L25.1255 21.9316L27.2901 23.8314L3.98926 50.3802L1.82471 48.4805Z" fill="#9D95FF"/>
<path d="M49.2725 23.8027L51.437 21.903L74.7383 48.4524L72.5738 50.3521L49.2725 23.8027Z" fill="#9D95FF"/>
</svg>
