<svg width="76" height="58" viewBox="0 0 76 58" fill="none" xmlns="http://www.w3.org/2000/svg">
<path d="M15.7828 55.7508H5.7098C3.78902 55.7508 2.22656 54.1883 2.22656 52.2675V14.9116H47.7338C48.3488 14.9116 48.8471 14.4133 48.8471 13.7983C48.8471 13.1833 48.3488 12.685 47.7338 12.685H2.22656V5.7098C2.22656 3.78916 3.78902 2.22656 5.7098 2.22656H20.0643C20.6793 2.22656 21.1776 1.72826 21.1776 1.11328C21.1776 0.498305 20.6793 0 20.0643 0H5.7098C2.56144 0 0 2.56144 0 5.7098V52.2675C0 55.4159 2.56144 57.9773 5.7098 57.9773H15.7828C16.3977 57.9773 16.896 57.479 16.896 56.864C16.896 56.2491 16.3977 55.7508 15.7828 55.7508Z" fill="#9D95FF"/>
<path d="M70.2905 0H25.881C25.266 0 24.7677 0.498305 24.7677 1.11328C24.7677 1.72826 25.266 2.22656 25.881 2.22656H70.2907C72.2113 2.22656 73.7739 3.78902 73.7739 5.7098V12.685H53.4151C52.8001 12.685 52.3018 13.1833 52.3018 13.7983C52.3018 14.4133 52.8001 14.9116 53.4151 14.9116H73.7737V52.2675C73.7737 54.1882 72.2113 55.7508 70.2905 55.7508H21.3667C20.7517 55.7508 20.2534 56.2491 20.2534 56.864C20.2534 57.479 20.7517 57.9773 21.3667 57.9773H70.2905C73.4389 57.9773 76.0003 55.4159 76.0003 52.2675V5.7098C76.0003 2.56144 73.4389 0 70.2905 0V0Z" fill="#9D95FF"/>
<path d="M9.43905 9.51774C10.5779 9.51774 11.5011 8.59451 11.5011 7.45565C11.5011 6.31679 10.5779 5.39355 9.43905 5.39355C8.30018 5.39355 7.37695 6.31679 7.37695 7.45565C7.37695 8.59451 8.30018 9.51774 9.43905 9.51774Z" fill="#9D95FF"/>
<path d="M15.7828 9.51774C16.9217 9.51774 17.8449 8.59451 17.8449 7.45565C17.8449 6.31679 16.9217 5.39355 15.7828 5.39355C14.6439 5.39355 13.7207 6.31679 13.7207 7.45565C13.7207 8.59451 14.6439 9.51774 15.7828 9.51774Z" fill="#9D95FF"/>
<path d="M22.1265 9.51774C23.2654 9.51774 24.1886 8.59451 24.1886 7.45565C24.1886 6.31679 23.2654 5.39355 22.1265 5.39355C20.9877 5.39355 20.0645 6.31679 20.0645 7.45565C20.0645 8.59451 20.9877 9.51774 22.1265 9.51774Z" fill="#9D95FF"/>
<path d="M14.6669 23.4388C14.193 23.047 13.4911 23.1138 13.0994 23.5876L6.3997 31.694C6.05948 32.1056 6.05948 32.7008 6.3997 33.1126L13.0994 41.2189C13.4929 41.6948 14.1956 41.7577 14.6669 41.3678C15.1407 40.9761 15.2075 40.2744 14.8158 39.8003L8.70211 32.4032L14.8158 25.0061C15.2074 24.5323 15.1407 23.8305 14.6669 23.4388V23.4388Z" fill="#9D95FF"/>
<path d="M61.8528 41.3677C62.3239 41.7577 63.0268 41.6947 63.4203 41.2188L70.12 33.1125C70.4602 32.7009 70.4602 32.1057 70.12 31.6939L63.4203 23.5876C63.0284 23.1138 62.3269 23.0471 61.8528 23.4387C61.379 23.8304 61.3122 24.5321 61.7039 25.0062L67.8176 32.4033L61.7039 39.8004C61.3123 40.2742 61.379 40.976 61.8528 41.3677V41.3677Z" fill="#9D95FF"/>
<path d="M42.7169 40.1454C43.3319 40.1454 43.8302 39.6471 43.8302 39.0321V25.8691C43.8302 25.2542 43.3319 24.7559 42.7169 24.7559C42.102 24.7559 41.6036 25.2542 41.6036 25.8691V31.1115H34.7212V25.8691C34.7212 25.2542 34.2229 24.7559 33.6079 24.7559C32.9929 24.7559 32.4946 25.2542 32.4946 25.8691V39.0321C32.4946 39.6471 32.9929 40.1454 33.6079 40.1454C34.2229 40.1454 34.7212 39.6471 34.7212 39.0321V33.3382H41.6036V39.0321C41.6036 39.6471 42.1021 40.1454 42.7169 40.1454Z" fill="#9D95FF"/>
<path d="M21.693 39.0322V34.4217C22.5373 34.4171 23.6618 34.4116 24.2448 34.4116C26.947 34.4116 29.1455 32.2458 29.1455 29.5838C29.1455 26.9219 26.947 24.7561 24.2448 24.7561H20.5797C19.9815 24.7443 19.4559 25.272 19.4665 25.8693V39.0323C19.4665 39.6473 19.9648 40.1456 20.5797 40.1456C21.1947 40.1456 21.693 39.6472 21.693 39.0322V39.0322ZM24.2448 26.9825C25.6943 26.9825 26.9189 28.1737 26.9189 29.5837C26.9189 30.9937 25.6943 32.1849 24.2448 32.1849C23.6649 32.1849 22.5556 32.1902 21.7122 32.1949C21.7076 31.328 21.6988 27.8845 21.6963 26.9823H24.2448V26.9825Z" fill="#9D95FF"/>
<path d="M48.7919 25.5465C48.7606 25.6512 48.7458 25.7598 48.7441 25.8691V39.0321C48.7441 39.647 49.2424 40.1453 49.8574 40.1453C50.4724 40.1453 50.9707 39.647 50.9707 39.0321V34.4216C51.815 34.417 52.9396 34.4115 53.5225 34.4115C56.2246 34.4115 58.4232 32.2457 58.4232 29.5837C58.4232 26.9218 56.2246 24.7559 53.5225 24.7559H49.8574C49.3775 24.7499 48.9258 25.0859 48.7919 25.5465V25.5465ZM53.5225 26.9822C54.972 26.9822 56.1966 28.1734 56.1966 29.5834C56.1966 30.9934 54.972 32.1846 53.5225 32.1846C52.9425 32.1846 51.8333 32.19 50.9899 32.1946C50.9852 31.3277 50.9765 27.8843 50.974 26.9821H53.5225V26.9822Z" fill="#9D95FF"/>
</svg>
