<svg width="20" height="20" viewBox="0 0 20 20" fill="none" xmlns="http://www.w3.org/2000/svg">
<g clip-path="url(#clip0_4_899)">
<path d="M14.5 0.833496C12.7083 0.836263 11.0299 1.71012 10 3.17611C8.97005 1.71012 7.29167 0.836263 5.5 0.833496C2.56999 0.833496 0 3.55957 0 6.66683C0 9.69515 1.70996 12.8141 4.94531 15.6868C6.44434 17.0153 8.0887 18.1701 9.84701 19.1296C9.94303 19.179 10.057 19.179 10.153 19.1296C11.9106 18.1701 13.5545 17.0151 15.0531 15.6868C18.29 12.8141 20 9.69515 20 6.66683C20 3.55957 17.43 0.833496 14.5 0.833496V0.833496ZM10 18.4544C8.77572 17.7788 0.666667 13.0588 0.666667 6.66683C0.666667 3.91455 2.92497 1.50016 5.5 1.50016C7.24447 1.50326 8.85254 2.44434 9.70964 3.96387C9.77376 4.06185 9.88298 4.12077 10 4.12077C10.117 4.12077 10.2262 4.06185 10.2904 3.96387C11.1475 2.44434 12.7555 1.50326 14.5 1.50016C17.075 1.50016 19.3333 3.91455 19.3333 6.66683C19.3333 13.0588 11.2243 17.7788 10 18.4544Z" fill="#5D53D3"/>
</g>
<defs>
<clipPath id="clip0_4_899">
<rect width="20" height="20" fill="white"/>
</clipPath>
</defs>
</svg>
