<svg width="18" height="18" viewBox="0 0 18 18" fill="none" xmlns="http://www.w3.org/2000/svg">
<path d="M17.1 5.4C17.5971 5.4 18 4.99706 18 4.5V0.9C18 0.402938 17.5971 0 17.1 0H0.9C0.402938 0 0 0.402938 0 0.9V4.5C0 4.99706 0.402938 5.4 0.9 5.4H1.8V6.3H0.9C0.402938 6.3 0 6.70294 0 7.2V10.8C0 11.2971 0.402938 11.7 0.9 11.7H1.8V12.6H0.9C0.402938 12.6 0 13.0029 0 13.5V17.1C0 17.5971 0.402938 18 0.9 18H17.1C17.5971 18 18 17.5971 18 17.1V13.5C18 13.0029 17.5971 12.6 17.1 12.6H16.2V11.7H17.1C17.5971 11.7 18 11.2971 18 10.8V7.2C18 6.70294 17.5971 6.3 17.1 6.3H16.2V5.4H17.1ZM17.1 13.2C17.2657 13.2 17.4 13.3343 17.4 13.5V17.1C17.4 17.2657 17.2657 17.4 17.1 17.4H0.9C0.734325 17.4 0.6 17.2657 0.6 17.1V13.5C0.6 13.3343 0.734325 13.2 0.9 13.2H17.1ZM2.4 12.6V11.7H3V12.6H2.4ZM3.6 12.6V11.7H14.4V12.6H3.6ZM15 12.6V11.7H15.6V12.6H15ZM17.1 6.9C17.2657 6.9 17.4 7.03433 17.4 7.2V10.8C17.4 10.9657 17.2657 11.1 17.1 11.1H0.9C0.734325 11.1 0.6 10.9657 0.6 10.8V7.2C0.6 7.03433 0.734325 6.9 0.9 6.9H17.1ZM2.4 6.3V5.4H3V6.3H2.4ZM3.6 6.3V5.4H14.4V6.3H3.6ZM15 6.3V5.4H15.6V6.3H15ZM0.9 4.8C0.734325 4.8 0.6 4.66568 0.6 4.5V0.9C0.6 0.734325 0.734325 0.6 0.9 0.6H17.1C17.2657 0.6 17.4 0.734325 17.4 0.9V4.5C17.4 4.66568 17.2657 4.8 17.1 4.8H0.9Z" fill="#5D53D3"/>
<path d="M9.59987 2.40005H3.54467C3.37899 1.93141 2.86476 1.68582 2.39616 1.85154C1.92756 2.01725 1.68193 2.53141 1.84761 3.00005C2.01328 3.46869 2.52752 3.71427 2.99612 3.54856C3.25243 3.45796 3.45407 3.25636 3.54467 3.00005H9.59987C9.76554 3.00005 9.89987 2.86572 9.89987 2.70005C9.89987 2.53437 9.76554 2.40005 9.59987 2.40005ZM2.69987 3.00005C2.53419 3.00005 2.39987 2.86572 2.39987 2.70005C2.39987 2.53437 2.53419 2.40005 2.69987 2.40005C2.86554 2.40005 2.99987 2.53437 2.99987 2.70005C2.99987 2.86572 2.86554 3.00005 2.69987 3.00005Z" fill="#5D53D3"/>
<path d="M13.8002 1.2002H13.2002V1.8002H13.8002V1.2002Z" fill="#5D53D3"/>
<path d="M14.9999 1.2002H14.3999V1.8002H14.9999V1.2002Z" fill="#5D53D3"/>
<path d="M16.2001 1.2002H15.6001V1.8002H16.2001V1.2002Z" fill="#5D53D3"/>
<path d="M12.6 1.2002H12V1.8002H12.6V1.2002Z" fill="#5D53D3"/>
<path d="M11.3998 1.2002H10.7998V1.8002H11.3998V1.2002Z" fill="#5D53D3"/>
<path d="M13.8002 2.3999H13.2002V2.9999H13.8002V2.3999Z" fill="#5D53D3"/>
<path d="M14.9999 2.3999H14.3999V2.9999H14.9999V2.3999Z" fill="#5D53D3"/>
<path d="M16.2001 2.3999H15.6001V2.9999H16.2001V2.3999Z" fill="#5D53D3"/>
<path d="M12.6 2.3999H12V2.9999H12.6V2.3999Z" fill="#5D53D3"/>
<path d="M11.3998 2.3999H10.7998V2.9999H11.3998V2.3999Z" fill="#5D53D3"/>
<path d="M13.8002 3.6001H13.2002V4.2001H13.8002V3.6001Z" fill="#5D53D3"/>
<path d="M14.9999 3.6001H14.3999V4.2001H14.9999V3.6001Z" fill="#5D53D3"/>
<path d="M16.2001 3.6001H15.6001V4.2001H16.2001V3.6001Z" fill="#5D53D3"/>
<path d="M12.6 3.6001H12V4.2001H12.6V3.6001Z" fill="#5D53D3"/>
<path d="M11.3998 3.6001H10.7998V4.2001H11.3998V3.6001Z" fill="#5D53D3"/>
<path d="M9.59987 8.69985H3.54467C3.37899 8.23121 2.86476 7.98563 2.39616 8.15134C1.92756 8.31705 1.68193 8.83121 1.84761 9.29985C2.01328 9.76849 2.52752 10.0141 2.99612 9.84837C3.25243 9.75777 3.45403 9.55613 3.54463 9.29985H9.59987C9.76554 9.29985 9.89987 9.16553 9.89987 8.99985C9.89987 8.83418 9.76554 8.69985 9.59987 8.69985ZM2.69987 9.29985C2.53419 9.29985 2.39987 9.16553 2.39987 8.99985C2.39987 8.83418 2.53419 8.69985 2.69987 8.69985C2.86554 8.69985 2.99987 8.83418 2.99987 8.99985C2.99987 9.16553 2.86554 9.29985 2.69987 9.29985Z" fill="#5D53D3"/>
<path d="M13.8002 7.5H13.2002V8.1H13.8002V7.5Z" fill="#5D53D3"/>
<path d="M14.9999 7.5H14.3999V8.1H14.9999V7.5Z" fill="#5D53D3"/>
<path d="M16.2001 7.5H15.6001V8.1H16.2001V7.5Z" fill="#5D53D3"/>
<path d="M12.6 7.5H12V8.1H12.6V7.5Z" fill="#5D53D3"/>
<path d="M11.3998 7.5H10.7998V8.1H11.3998V7.5Z" fill="#5D53D3"/>
<path d="M13.8002 8.7002H13.2002V9.3002H13.8002V8.7002Z" fill="#5D53D3"/>
<path d="M14.9999 8.7002H14.3999V9.3002H14.9999V8.7002Z" fill="#5D53D3"/>
<path d="M16.2001 8.7002H15.6001V9.3002H16.2001V8.7002Z" fill="#5D53D3"/>
<path d="M12.6 8.7002H12V9.3002H12.6V8.7002Z" fill="#5D53D3"/>
<path d="M11.3998 8.7002H10.7998V9.3002H11.3998V8.7002Z" fill="#5D53D3"/>
<path d="M13.8002 9.8999H13.2002V10.4999H13.8002V9.8999Z" fill="#5D53D3"/>
<path d="M14.9999 9.8999H14.3999V10.4999H14.9999V9.8999Z" fill="#5D53D3"/>
<path d="M16.2001 9.8999H15.6001V10.4999H16.2001V9.8999Z" fill="#5D53D3"/>
<path d="M12.6 9.8999H12V10.4999H12.6V9.8999Z" fill="#5D53D3"/>
<path d="M11.3998 9.8999H10.7998V10.4999H11.3998V9.8999Z" fill="#5D53D3"/>
<path d="M9.59987 15.0001H3.54467C3.37899 14.5315 2.86476 14.2859 2.39616 14.4516C1.92756 14.6173 1.68193 15.1315 1.84761 15.6001C2.01328 16.0688 2.52752 16.3144 2.99612 16.1487C3.25243 16.0581 3.45403 15.8564 3.54463 15.6001H9.59987C9.76554 15.6001 9.89987 15.4658 9.89987 15.3001C9.89987 15.1345 9.76554 15.0001 9.59987 15.0001ZM2.69987 15.6001C2.53419 15.6001 2.39987 15.4658 2.39987 15.3001C2.39987 15.1345 2.53419 15.0001 2.69987 15.0001C2.86554 15.0001 2.99987 15.1345 2.99987 15.3001C2.99987 15.4658 2.86554 15.6001 2.69987 15.6001Z" fill="#5D53D3"/>
<path d="M13.8002 13.7998H13.2002V14.3998H13.8002V13.7998Z" fill="#5D53D3"/>
<path d="M14.9999 13.7998H14.3999V14.3998H14.9999V13.7998Z" fill="#5D53D3"/>
<path d="M16.2001 13.7998H15.6001V14.3998H16.2001V13.7998Z" fill="#5D53D3"/>
<path d="M12.6 13.7998H12V14.3998H12.6V13.7998Z" fill="#5D53D3"/>
<path d="M11.3998 13.7998H10.7998V14.3998H11.3998V13.7998Z" fill="#5D53D3"/>
<path d="M13.8002 15H13.2002V15.6H13.8002V15Z" fill="#5D53D3"/>
<path d="M14.9999 15H14.3999V15.6H14.9999V15Z" fill="#5D53D3"/>
<path d="M16.2001 15H15.6001V15.6H16.2001V15Z" fill="#5D53D3"/>
<path d="M12.6 15H12V15.6H12.6V15Z" fill="#5D53D3"/>
<path d="M11.3998 15H10.7998V15.6H11.3998V15Z" fill="#5D53D3"/>
<path d="M13.8002 16.2002H13.2002V16.8002H13.8002V16.2002Z" fill="#5D53D3"/>
<path d="M14.9999 16.2002H14.3999V16.8002H14.9999V16.2002Z" fill="#5D53D3"/>
<path d="M16.2001 16.2002H15.6001V16.8002H16.2001V16.2002Z" fill="#5D53D3"/>
<path d="M12.6 16.2002H12V16.8002H12.6V16.2002Z" fill="#5D53D3"/>
<path d="M11.3998 16.2002H10.7998V16.8002H11.3998V16.2002Z" fill="#5D53D3"/>
</svg>
