<svg width="20" height="20" viewBox="0 0 20 20" fill="none" xmlns="http://www.w3.org/2000/svg">
<path d="M10.9333 20H9.06667C8.43583 20 7.90333 19.5275 7.82833 18.9L7.62917 17.3367C7.23167 17.2075 6.84833 17.0483 6.48417 16.8625L5.23917 17.83C4.73417 18.2208 4.02333 18.1758 3.585 17.725L2.2725 16.4125C1.825 15.9783 1.78 15.2675 2.17083 14.7633L3.13833 13.5175C2.95167 13.1533 2.7925 12.77 2.66417 12.3725L1.0975 12.1733C0.4725 12.0967 0 11.5642 0 10.9333V9.06667C0 8.43583 0.4725 7.90333 1.1 7.82833L2.66333 7.62917C2.7925 7.23167 2.95167 6.84833 3.1375 6.48417L2.17083 5.23917C1.77917 4.73417 1.825 4.0225 2.27667 3.58417L3.58917 2.27167C4.02333 1.82417 4.735 1.78 5.23833 2.17L6.48333 3.13833C6.8475 2.9525 7.23083 2.79333 7.62917 2.66417L7.82833 1.0975C7.90333 0.4725 8.43583 0 9.06667 0H10.9333C11.5642 0 12.0967 0.4725 12.1717 1.1L12.3708 2.66333C12.7692 2.7925 13.1525 2.95167 13.5167 3.1375L14.7617 2.17C15.2675 1.77917 15.9775 1.82417 16.4158 2.27583L17.7283 3.58833C18.1758 4.0225 18.2208 4.73333 17.83 5.2375L16.8625 6.48333C17.0492 6.8475 17.2083 7.23083 17.3367 7.62833L18.9033 7.8275C19.5275 7.90333 20 8.43583 20 9.06667V10.9333C20 11.5642 19.5275 12.0967 18.9 12.1717L17.3367 12.3708C17.2075 12.7683 17.0483 13.1517 16.8625 13.5158L17.83 14.7608C18.2217 15.2658 18.1758 15.9767 17.7242 16.415L16.4117 17.7275C15.9775 18.175 15.2658 18.2208 14.7625 17.8292L13.5167 16.8617C13.1525 17.0483 12.7692 17.2075 12.3717 17.3358L12.1725 18.9025C12.0967 19.5275 11.5642 20 10.9333 20V20ZM6.44167 15.95C6.51083 15.95 6.58167 15.9675 6.645 16.0025C7.10417 16.2592 7.60167 16.4658 8.12333 16.6158C8.28333 16.6617 8.40083 16.7983 8.42167 16.9633L8.655 18.7967C8.68 19.0058 8.86083 19.1667 9.06667 19.1667H10.9333C11.1392 19.1667 11.32 19.0058 11.3442 18.8008L11.5783 16.9642C11.5992 16.7992 11.7167 16.6625 11.8767 16.6167C12.3983 16.4667 12.8958 16.26 13.355 16.0033C13.5008 15.9217 13.6825 15.9358 13.8133 16.0383L15.2717 17.1717C15.4392 17.3017 15.6742 17.2908 15.8175 17.1433L17.1383 15.8225C17.2892 15.6758 17.3008 15.4408 17.1708 15.2725L16.0375 13.8142C15.935 13.6825 15.9208 13.5017 16.0025 13.3558C16.2592 12.8967 16.4658 12.3992 16.6158 11.8775C16.6617 11.7175 16.7983 11.6 16.9633 11.5792L18.7967 11.3458C19.0058 11.32 19.1667 11.1392 19.1667 10.9333V9.06667C19.1667 8.86083 19.0058 8.68 18.8008 8.65583L16.9642 8.42167C16.7992 8.40083 16.6625 8.28333 16.6167 8.12333C16.4667 7.60167 16.26 7.10417 16.0033 6.645C15.9217 6.49917 15.935 6.31833 16.0383 6.18667L17.1717 4.72833C17.3025 4.56 17.2908 4.325 17.1442 4.18333L15.8233 2.8625C15.6775 2.71083 15.4417 2.69917 15.2733 2.83L13.815 3.96333C13.6825 4.06583 13.5017 4.08 13.3558 3.99833C12.8983 3.74167 12.4008 3.53583 11.8775 3.385C11.7175 3.33917 11.6 3.2025 11.5792 3.0375L11.3458 1.20417C11.32 0.994167 11.1392 0.833333 10.9333 0.833333H9.06667C8.86083 0.833333 8.68 0.994167 8.65583 1.19917L8.42167 3.03583C8.40083 3.20083 8.28333 3.3375 8.12333 3.38417C7.6 3.53417 7.1025 3.74083 6.645 3.99667C6.49917 4.07917 6.31833 4.06417 6.18583 3.9625L4.7275 2.82917C4.55917 2.69833 4.325 2.71 4.1825 2.85667L2.86167 4.17833C2.71083 4.325 2.69917 4.56 2.82917 4.72833L3.9625 6.18667C4.065 6.31833 4.07917 6.49917 3.9975 6.645C3.74 7.10417 3.53417 7.60167 3.38417 8.12333C3.33833 8.28333 3.20167 8.40083 3.03667 8.42167L1.20333 8.655C0.994167 8.68 0.833333 8.86083 0.833333 9.06667V10.9333C0.833333 11.1392 0.994167 11.32 1.19917 11.3442L3.03583 11.5783C3.20083 11.5992 3.3375 11.7167 3.38333 11.8767C3.53333 12.3983 3.74 12.8958 3.99667 13.355C4.07833 13.5008 4.065 13.6817 3.96167 13.8133L2.82833 15.2717C2.6975 15.44 2.70917 15.675 2.85583 15.8167L4.17667 17.1375C4.3225 17.2883 4.55667 17.3 4.72667 17.17L6.185 16.0367C6.26083 15.98 6.35083 15.95 6.44167 15.95V15.95Z" fill="#5D53D3"/>
<path d="M10.0002 14.1668C7.70266 14.1668 5.8335 12.2977 5.8335 10.0002C5.8335 7.70266 7.70266 5.8335 10.0002 5.8335C12.2977 5.8335 14.1668 7.70266 14.1668 10.0002C14.1668 12.2977 12.2977 14.1668 10.0002 14.1668ZM10.0002 6.66683C8.16183 6.66683 6.66683 8.16183 6.66683 10.0002C6.66683 11.8385 8.16183 13.3335 10.0002 13.3335C11.8385 13.3335 13.3335 11.8385 13.3335 10.0002C13.3335 8.16183 11.8385 6.66683 10.0002 6.66683Z" fill="#5D53D3"/>
</svg>
