<svg width="80" height="62" viewBox="0 0 80 62" fill="none" xmlns="http://www.w3.org/2000/svg">
<path d="M78.4374 23.5984C76.922 21.5534 74.5851 20.3771 72.0291 20.3771H70.0938V15.2195C70.0938 10.8762 66.5336 7.34735 62.1336 7.34735H38.9102C37.5775 7.34735 36.2994 6.82254 35.3501 5.89959L31.6986 2.29831C30.2015 0.814362 28.2114 0 26.0936 0H7.9458C3.56404 0 0.00385493 3.5289 0.00385493 7.89025V53.8021C-0.0509171 55.5575 0.478546 57.2948 1.55573 58.7426C3.08934 60.8056 5.44454 62 8.03708 62H63.8863C67.3734 62 70.4224 59.7741 71.4813 56.4624L79.6424 30.6019C80.3909 28.195 79.9527 25.6433 78.4374 23.5984V23.5984ZM2.90677 7.89025C2.90677 5.13952 5.17068 2.89551 7.92754 2.89551H26.0936C27.4264 2.89551 28.6861 3.42032 29.6538 4.34326L33.3052 7.94454C34.8023 9.42849 36.7924 10.2429 38.9102 10.2429H62.1518C64.9269 10.2429 67.1909 12.4869 67.1909 15.2195V20.3771H16.0703C12.5832 20.3771 9.53419 22.603 8.47526 25.8967L2.88851 43.5593V7.89025H2.90677ZM76.8307 29.7513L68.6697 55.6118C68.0124 57.711 66.0772 59.1045 63.868 59.1045H8.01883C6.37567 59.1045 4.87856 58.3444 3.89267 57.0415C2.92503 55.7204 2.63291 54.0736 3.12586 52.5172L11.2504 26.7653C11.9076 24.6661 13.8429 23.2726 16.0521 23.2726H72.0108C73.6357 23.2726 75.1145 24.0146 76.0639 25.2995C77.0498 26.6025 77.3237 28.2131 76.8307 29.7513Z" fill="#9D95FF"/>
</svg>
